<?xml version="1.0" encoding="UTF-8" standalone="no"?>
<!-- Created with Inkscape (http://www.inkscape.org/) -->

<svg
   xmlns:dc="http://purl.org/dc/elements/1.1/"
   xmlns:cc="http://creativecommons.org/ns#"
   xmlns:rdf="http://www.w3.org/1999/02/22-rdf-syntax-ns#"
   xmlns:svg="http://www.w3.org/2000/svg"
   xmlns="http://www.w3.org/2000/svg"
   xmlns:xlink="http://www.w3.org/1999/xlink"
   xmlns:sodipodi="http://sodipodi.sourceforge.net/DTD/sodipodi-0.dtd"
   xmlns:inkscape="http://www.inkscape.org/namespaces/inkscape"
   width="81.817993mm"
   height="81.817993mm"
   viewBox="0 0 81.817993 81.817993"
   version="1.1"
   id="svg8"
   inkscape:version="0.92.4 (unknown)"
   sodipodi:docname="nikicaMimi.svg"
   inkscape:export-filename="/home/josip/bitmap.png"
   inkscape:export-xdpi="96"
   inkscape:export-ydpi="96">
  <defs
     id="defs2">
    <inkscape:path-effect
       effect="skeletal"
       id="path-effect4840"
       is_visible="true"
       pattern="m -892.50808,-70.363334 c 0.031,0.02066 0.25757,-0.108136 0.40974,-0.04694 0.19581,0.07874 0.32258,0.348139 0.32258,0.348139 0,0 0.0988,-0.195549 0.0473,-0.271669 -0.13874,-0.20496 -0.50678,-0.267569 -0.72645,-0.153553 -0.0399,0.02072 -0.0532,0.124024 -0.0532,0.124024 z"
       copytype="single_stretched"
       prop_scale="0.26458333"
       scale_y_rel="false"
       spacing="0"
       normal_offset="0"
       tang_offset="0"
       prop_units="false"
       vertical_pattern="false"
       fuse_tolerance="0" />
  </defs>
  <sodipodi:namedview
     id="base"
     pagecolor="#ffffff"
     bordercolor="#666666"
     borderopacity="1.0"
     inkscape:pageopacity="0.0"
     inkscape:pageshadow="2"
     inkscape:zoom="1.28"
     inkscape:cx="268.58963"
     inkscape:cy="264.23916"
     inkscape:document-units="mm"
     inkscape:current-layer="layer1"
     showgrid="false"
     showborder="true"
     showguides="false"
     inkscape:window-width="1920"
     inkscape:window-height="1059"
     inkscape:window-x="0"
     inkscape:window-y="21"
     inkscape:window-maximized="1"
     inkscape:snap-bbox="false"
     inkscape:bbox-nodes="true"
     inkscape:bbox-paths="true"
     inkscape:snap-bbox-edge-midpoints="true"
     inkscape:snap-bbox-midpoints="true"
     inkscape:object-paths="true"
     inkscape:snap-intersection-paths="true"
     inkscape:snap-midpoints="true"
     inkscape:snap-smooth-nodes="true"
     inkscape:snap-object-midpoints="true"
     inkscape:snap-center="true"
     inkscape:snap-nodes="false" />
  <metadata
     id="metadata5">
    <rdf:RDF>
      <cc:Work
         rdf:about="">
        <dc:format>image/svg+xml</dc:format>
        <dc:type
           rdf:resource="http://purl.org/dc/dcmitype/StillImage" />
        <dc:title></dc:title>
      </cc:Work>
    </rdf:RDF>
  </metadata>
  <g
     inkscape:label="Layer 1"
     inkscape:groupmode="layer"
     id="layer1"
     transform="translate(916.24297,151.21563)">
    <path
       style="fill:none;stroke:#000000;stroke-width:0.26458332px;stroke-linecap:butt;stroke-linejoin:miter;stroke-opacity:1"
       d="m -900.82169,-81.495272 c 0,0 23.40258,26.238844 53.54042,-2.126337"
       id="path4665"
       inkscape:connector-curvature="0" />
    <text
       xml:space="preserve"
       style="font-style:normal;font-weight:normal;font-size:10.58333302px;line-height:1.25;font-family:sans-serif;letter-spacing:0px;word-spacing:0px;fill:#000000;fill-opacity:1;stroke:none;stroke-width:0.26458332"
       id="text4641"
       transform="rotate(-17.173579,-890.10354,-105.24605)"
       inkscape:export-filename="/home/josip/nikicaMimi.png"
       inkscape:export-xdpi="96"
       inkscape:export-ydpi="96"
       x="148.48683"
       y="-580.46606"><textPath
         xlink:href="#path4665"
         id="textPath4667"><tspan
   style="font-style:normal;font-variant:normal;font-weight:bold;font-stretch:normal;font-family:'Ubuntu Mono';-inkscape-font-specification:'Ubuntu Mono Bold';letter-spacing:1.61660421px;stroke-width:0.26458332"
   id="tspan4639">NIČEGA</tspan></textPath></text>
    <path
       inkscape:connector-curvature="0"
       style="fill:none;fill-opacity:1;stroke:#000000;stroke-width:1.546;stroke-miterlimit:4;stroke-dasharray:none;stroke-opacity:1"
       d="m -849.73312,-111.09825 a 25.60107,25.60107 0 0 1 -25.60107,25.60107 25.60107,25.60107 0 0 1 -25.60107,-25.60107 25.60107,25.60107 0 0 1 25.60107,-25.60107 25.60107,25.60107 0 0 1 25.60107,25.60107 z"
       id="path4574"
       inkscape:export-filename="/home/josip/nikicaMimi.png"
       inkscape:export-xdpi="96"
       inkscape:export-ydpi="96" />
    <path
       style="fill:none;fill-opacity:1;stroke:#000000;stroke-width:2.72259617;stroke-miterlimit:4;stroke-dasharray:none;stroke-opacity:1"
       d="m -835.78627,-110.30664 a 39.547701,39.547704 0 0 1 -39.5477,39.547708 39.547701,39.547704 0 0 1 -39.5477,-39.547708 39.547701,39.547704 0 0 1 39.5477,-39.54769 39.547701,39.547704 0 0 1 39.5477,39.54769 z"
       id="path4574-3"
       inkscape:export-filename="/home/josip/nikicaMimi.png"
       inkscape:export-xdpi="96"
       inkscape:export-ydpi="96"
       inkscape:connector-curvature="0" />
    <text
       xml:space="preserve"
       style="font-style:normal;font-weight:normal;font-size:10.58333302px;line-height:1.25;font-family:sans-serif;letter-spacing:0px;word-spacing:0px;fill:#000000;fill-opacity:1;stroke:none;stroke-width:0.26458332"
       id="text4631"
       transform="rotate(-134.60068,-875.85344,-112.82022)"
       inkscape:export-filename="/home/josip/nikicaMimi.png"
       inkscape:export-xdpi="96"
       inkscape:export-ydpi="96"
       x="1571.1375"
       y="-432.0798"><textPath
         xlink:href="#path4574"
         id="textPath4636"
         style="font-style:normal;font-variant:normal;font-weight:bold;font-stretch:normal;font-family:'Ubuntu Mono';-inkscape-font-specification:'Ubuntu Mono Bold';letter-spacing:1.61660421px;stroke-width:0.26458332">SIVILO</textPath></text>
    <path
       style="opacity:1;fill:#ffffff;fill-opacity:1;stroke:#000000;stroke-width:0.26458332px;stroke-linecap:butt;stroke-linejoin:miter;stroke-opacity:1"
       d="m -861.20883,-111.22459 -0.32195,-0.92243 -0.61441,-3.63802 -1.03924,-1.98437 0.90876,-2.85424 -1.08906,-2.9283 -4.51231,-3.57385 c -7.0943,-1.83398 -13.2695,2.24525 -18.486,3.35607 l -1.70402,3.17383 c -1.0231,5.85267 0.013,12.68241 0.66604,18.99295 -0.15947,0.31892 1.57454,9.205804 8.81962,11.22515 5.47343,1.525551 7.06879,1.611241 12.91407,-2.590171 4.43153,-5.140214 3.56248,-8.897719 3.99082,-9.069069 z"
       id="path4603"
       inkscape:connector-curvature="0"
       sodipodi:nodetypes="cccccccccccscc"
       inkscape:export-filename="/home/josip/nikicaMimi.png"
       inkscape:export-xdpi="96"
       inkscape:export-ydpi="96" />
    <path
       sodipodi:nodetypes="ccccccccccccccccccccccccccccsc"
       inkscape:connector-curvature="0"
       style="fill:#000502;fill-opacity:1;stroke:#000000;stroke-width:0.26458332px;stroke-linecap:butt;stroke-linejoin:miter;stroke-opacity:1"
       d="m -875.45551,-132.77521 c -1.99316,-0.0282 -3.39307,0.16898 -3.39307,0.16898 0,0 -8.81983,4.34305 -8.28529,5.61258 0.53456,1.26953 -5.61261,7.01617 -3.14037,10.55749 l 0.66818,5.21157 1.60351,3.80855 -0.58331,-7.33544 0.14564,-1.23631 1.04365,-1.94866 0.21052,-0.96674 0.75602,-1.55908 0.40108,-1.03567 c -1.12453,-2.22476 2.48588,-2.2631 4.4059,-3.55759 0,0 2.80541,-0.211 3.04163,-0.25825 0.11811,-0.0236 0.81326,0.0734 1.44519,0.41003 0.63193,0.33664 1.76858,0.27812 1.76858,0.27812 l 1.8016,-1.56473 5.85605,-0.30068 3.24278,2.83887 1.35633,2.62761 -0.0735,3.25515 1.03924,1.98437 0.61441,3.63802 0.32195,0.92243 c 0,0 0.83058,-0.56224 1.002,-1.00252 0.56618,-1.45418 -0.19997,-4.67672 -0.19997,-4.67672 l 0.601,-2.73988 c 0,0 0.13364,-3.94221 -4.47675,-9.15397 -2.8815,-3.25734 -7.85101,-3.93055 -11.17296,-3.97753 z"
       id="path4584"
       inkscape:export-filename="/home/josip/nikicaMimi.png"
       inkscape:export-xdpi="96"
       inkscape:export-ydpi="96" />
    <path
       style="fill:#000000;fill-opacity:1;stroke:#000000;stroke-width:0.26458332px;stroke-linecap:butt;stroke-linejoin:miter;stroke-opacity:1"
       d="m -884.91812,-113.68258 c 0,0 0,-1.01581 0.94494,-1.48828 0.94493,-0.47247 4.15774,-1.5119 6.47284,1.03944 0,0 -0.21262,0.68508 -0.33073,0.68508 -3.44255,-2.61217 -4.8018,-0.98482 -6.70909,0.25986 z"
       id="path4614"
       inkscape:connector-curvature="0"
       sodipodi:nodetypes="cccccc"
       inkscape:export-filename="/home/josip/nikicaMimi.png"
       inkscape:export-xdpi="96"
       inkscape:export-ydpi="96" />
    <path
       style="fill:#000000;fill-opacity:1;stroke:#000000;stroke-width:0.26458332px;stroke-linecap:butt;stroke-linejoin:miter;stroke-opacity:1"
       d="m -872.13782,-114.4149 c 0,0 3.4963,-3.14193 6.68548,-1.13393 l 1.32291,2.26785 0.47246,1.11031 -1.53553,-0.8977 c 0,0 -0.75866,-1.67454 -1.53552,-1.98437 -0.91033,-0.36305 -2.90569,0.44885 -2.90569,0.44885 0,0 -1.37015,0.82682 -1.58277,0.82682 -0.21262,0 -0.92134,-0.63784 -0.92134,-0.63784 z"
       id="path4616"
       inkscape:connector-curvature="0"
       sodipodi:nodetypes="cccccacscc"
       inkscape:export-filename="/home/josip/nikicaMimi.png"
       inkscape:export-xdpi="96"
       inkscape:export-ydpi="96" />
    <path
       style="fill:none;stroke:#000000;stroke-width:0.26458332px;stroke-linecap:butt;stroke-linejoin:miter;stroke-opacity:1"
       d="m -871.56556,-110.65665 c 4.6826,2.53357 3.71152,1.78831 5.57923,1.63702"
       id="path4618"
       inkscape:connector-curvature="0"
       sodipodi:nodetypes="cc"
       inkscape:export-filename="/home/josip/nikicaMimi.png"
       inkscape:export-xdpi="96"
       inkscape:export-ydpi="96" />
    <path
       style="fill:none;stroke:#000000;stroke-width:0.26458332px;stroke-linecap:butt;stroke-linejoin:miter;stroke-opacity:1"
       d="m -869.96195,-110.75688 c 2.73767,1.7034 4.17652,0.76019 4.20948,0.70158"
       id="path4620"
       inkscape:connector-curvature="0"
       sodipodi:nodetypes="cc"
       inkscape:export-filename="/home/josip/nikicaMimi.png"
       inkscape:export-xdpi="96"
       inkscape:export-ydpi="96" />
    <path
       style="fill:none;stroke:#000000;stroke-width:0.26458332px;stroke-linecap:butt;stroke-linejoin:miter;stroke-opacity:1"
       d="m -872.01968,-111.72182 c 0.14174,-0.18899 1.37015,-3.18918 6.68544,-0.35436 -2.16609,0.33648 -4.34433,0.63043 -6.68544,0.35436 z"
       id="path4622"
       inkscape:connector-curvature="0"
       sodipodi:nodetypes="ccc"
       inkscape:export-filename="/home/josip/nikicaMimi.png"
       inkscape:export-xdpi="96"
       inkscape:export-ydpi="96" />
    <path
       style="fill:none;stroke:#000000;stroke-width:0.26458332px;stroke-linecap:butt;stroke-linejoin:miter;stroke-opacity:1"
       d="m -883.33535,-111.24936 c 0,0 3.09467,-3.61439 6.47284,-0.47246 -2.21205,0.53852 -4.34881,0.55004 -6.47284,0.47246 z"
       id="path4624"
       inkscape:connector-curvature="0"
       sodipodi:nodetypes="ccc"
       inkscape:export-filename="/home/josip/nikicaMimi.png"
       inkscape:export-xdpi="96"
       inkscape:export-ydpi="96" />
    <circle
       style="opacity:1;fill:#000502;fill-opacity:1;stroke-width:0.41691917"
       id="path4626"
       cx="-880.03467"
       cy="-112.14335"
       r="0.86862594"
       inkscape:export-filename="/home/josip/nikicaMimi.png"
       inkscape:export-xdpi="96"
       inkscape:export-ydpi="96" />
    <circle
       style="opacity:1;fill:#000000;fill-opacity:1;stroke-width:0.43295452"
       id="path4626-3"
       cx="-869.32715"
       cy="-112.49414"
       r="0.90203464"
       inkscape:export-filename="/home/josip/nikicaMimi.png"
       inkscape:export-xdpi="96"
       inkscape:export-ydpi="96" />
    <path
       style="fill:none;stroke:#000000;stroke-width:0.26458332px;stroke-linecap:butt;stroke-linejoin:miter;stroke-opacity:1"
       d="m -884.09383,-118.74156 c 0,0 8.28534,-6.01356 17.13865,-1.26953"
       id="path4643"
       inkscape:connector-curvature="0"
       inkscape:export-filename="/home/josip/nikicaMimi.png"
       inkscape:export-xdpi="96"
       inkscape:export-ydpi="96" />
    <path
       style="fill:none;stroke:#000000;stroke-width:0.26458332px;stroke-linecap:butt;stroke-linejoin:miter;stroke-opacity:1"
       d="m -881.15386,-117.93975 c 0,0 0.16703,-3.74177 11.42576,-1.70384"
       id="path4645"
       inkscape:connector-curvature="0"
       inkscape:export-filename="/home/josip/nikicaMimi.png"
       inkscape:export-xdpi="96"
       inkscape:export-ydpi="96" />
    <path
       style="fill:none;stroke:#000000;stroke-width:0.26458332px;stroke-linecap:butt;stroke-linejoin:miter;stroke-opacity:1"
       d="m -878.75651,-106.91717 c -4.74695,3.58861 -4.31832,5.65115 -3.82227,6.42089"
       id="path4651-6"
       inkscape:connector-curvature="0"
       sodipodi:nodetypes="cc"
       inkscape:export-filename="/home/josip/nikicaMimi.png"
       inkscape:export-xdpi="96"
       inkscape:export-ydpi="96" />
    <g
       id="g4819"
       transform="translate(-55.685617,-64.999726)"
       inkscape:export-filename="/home/josip/nikicaMimi.png"
       inkscape:export-xdpi="96"
       inkscape:export-ydpi="96">
      <path
         sodipodi:nodetypes="cccaac"
         inkscape:connector-curvature="0"
         id="rect4730"
         d="m -825.01523,-38.548415 c 2.15591,-0.316473 3.8099,-1.167709 6.08869,0.369466 1.93325,-1.063136 3.52177,-0.991418 6.80848,-0.322219 0,0 1.83202,8.089166 -0.73903,10.454342 -2.69843,2.482349 -8.28143,2.320943 -10.99874,-0.14072 -2.57549,-2.333182 -1.1594,-10.360869 -1.1594,-10.360869 z"
         style="opacity:1;fill:#000000;fill-opacity:1;stroke-width:0.27210912" />
      <path
         sodipodi:nodetypes="cccaac"
         inkscape:connector-curvature="0"
         id="rect4730-7"
         d="m -824.48312,-37.222457 h 5.98419 5.92242 c 0,0 1.24355,6.533423 -1.11198,8.389979 -2.34762,1.850314 -7.00715,1.732701 -9.36493,-0.107124 -2.3469,-1.831322 -1.4297,-8.282857 -1.4297,-8.282857 z"
         style="opacity:1;fill:#ffffff;fill-opacity:1;stroke-width:0.21907255" />
    </g>
    <path
       style="fill:#ffffff;fill-opacity:0.99215686;stroke:#000000;stroke-width:0.26458332px;stroke-linecap:butt;stroke-linejoin:miter;stroke-opacity:1"
       d="m -879.24958,-99.375259 c 0.003,0.01346 1.78469,-2.018101 4.93132,-1.654121 1.42719,0.16509 3.20742,-0.22887 5.19151,1.553894 0.0313,0.271049 -6.17173,-1.437724 -10.12283,0.100227 z"
       id="path4662-6"
       inkscape:connector-curvature="0"
       sodipodi:nodetypes="cscc"
       inkscape:export-filename="/home/josip/nikicaMimi.png"
       inkscape:export-xdpi="96"
       inkscape:export-ydpi="96" />
    <path
       sodipodi:nodetypes="csscc"
       style="fill:#ffffff;fill-opacity:0.99215686;stroke:#000000;stroke-width:0.26458332px;stroke-linecap:butt;stroke-linejoin:miter;stroke-opacity:1"
       d="m -879.2732,-99.244984 c -0.04,0.498051 0.48339,1.045602 1.89131,1.591982 0.76053,0.295147 1.6207,0.729681 3.13461,0.482644 1.55716,-0.254093 3.64839,0.547389 4.95517,-2.080705 0,0 -6.17249,2.779 -9.98109,0.0061 z"
       id="path4662"
       inkscape:connector-curvature="0"
       inkscape:export-filename="/home/josip/nikicaMimi.png"
       inkscape:export-xdpi="96"
       inkscape:export-ydpi="96" />
    <path
       style="fill:none;stroke:#000000;stroke-width:0.26458332px;stroke-linecap:butt;stroke-linejoin:miter;stroke-opacity:1"
       d="m -879.24958,-99.375259 c 0,0 9.62171,0.768403 10.12283,-0.100227"
       id="path4679"
       inkscape:connector-curvature="0"
       inkscape:export-filename="/home/josip/nikicaMimi.png"
       inkscape:export-xdpi="96"
       inkscape:export-ydpi="96" />
    <path
       style="fill:none;stroke:#000000;stroke-width:0.26458332px;stroke-linecap:butt;stroke-linejoin:miter;stroke-opacity:1"
       d="m -876.7562,-99.879357 0.0236,0.626023"
       id="path4681"
       inkscape:connector-curvature="0"
       inkscape:export-filename="/home/josip/nikicaMimi.png"
       inkscape:export-xdpi="96"
       inkscape:export-ydpi="96" />
    <path
       style="fill:none;stroke:#000000;stroke-width:0.26458332px;stroke-linecap:butt;stroke-linejoin:miter;stroke-opacity:1"
       d="m -875.77584,-99.938417 0.0355,0.720519"
       id="path4683"
       inkscape:connector-curvature="0"
       inkscape:export-filename="/home/josip/nikicaMimi.png"
       inkscape:export-xdpi="96"
       inkscape:export-ydpi="96" />
    <path
       style="fill:none;stroke:#000000;stroke-width:0.26458332px;stroke-linecap:butt;stroke-linejoin:miter;stroke-opacity:1"
       d="m -874.33478,-99.950228 -0.36619,0.87407"
       id="path4685"
       inkscape:connector-curvature="0"
       inkscape:export-filename="/home/josip/nikicaMimi.png"
       inkscape:export-xdpi="96"
       inkscape:export-ydpi="96" />
    <path
       style="fill:none;stroke:#000000;stroke-width:0.26458332px;stroke-linecap:butt;stroke-linejoin:miter;stroke-opacity:1"
       d="m -873.61427,-99.962039 0.0709,0.897692"
       id="path4687"
       inkscape:connector-curvature="0"
       inkscape:export-filename="/home/josip/nikicaMimi.png"
       inkscape:export-xdpi="96"
       inkscape:export-ydpi="96" />
    <path
       style="fill:none;stroke:#000000;stroke-width:0.26458332px;stroke-linecap:butt;stroke-linejoin:miter;stroke-opacity:1"
       d="m -872.2205,-99.843924 -0.0708,0.744141"
       id="path4689"
       inkscape:connector-curvature="0"
       inkscape:export-filename="/home/josip/nikicaMimi.png"
       inkscape:export-xdpi="96"
       inkscape:export-ydpi="96" />
    <path
       sodipodi:nodetypes="cc"
       style="fill:none;stroke:#000000;stroke-width:0.26458332px;stroke-linecap:butt;stroke-linejoin:miter;stroke-opacity:1"
       d="m -876.10657,-99.158841 c 0,0.04725 0.0709,1.145741 0.0709,1.145741"
       id="path4691"
       inkscape:connector-curvature="0"
       inkscape:export-filename="/home/josip/nikicaMimi.png"
       inkscape:export-xdpi="96"
       inkscape:export-ydpi="96" />
    <path
       sodipodi:nodetypes="cc"
       style="fill:none;stroke:#000000;stroke-width:0.26458332px;stroke-linecap:butt;stroke-linejoin:miter;stroke-opacity:1"
       d="m -874.12219,-99.123405 0.0118,0.968565"
       id="path4693"
       inkscape:connector-curvature="0"
       inkscape:export-filename="/home/josip/nikicaMimi.png"
       inkscape:export-xdpi="96"
       inkscape:export-ydpi="96" />
    <path
       sodipodi:nodetypes="cc"
       style="fill:none;stroke:#000000;stroke-width:0.26458332px;stroke-linecap:butt;stroke-linejoin:miter;stroke-opacity:1"
       d="m -872.97644,-98.969851 -0.0945,0.779573"
       id="path4695"
       inkscape:connector-curvature="0"
       inkscape:export-filename="/home/josip/nikicaMimi.png"
       inkscape:export-xdpi="96"
       inkscape:export-ydpi="96" />
    <path
       sodipodi:nodetypes="cc"
       style="fill:none;stroke:#000000;stroke-width:0.26458332px;stroke-linecap:butt;stroke-linejoin:miter;stroke-opacity:1"
       d="m -875.13798,-99.040723 0.0709,0.956751"
       id="path4697"
       inkscape:connector-curvature="0"
       inkscape:export-filename="/home/josip/nikicaMimi.png"
       inkscape:export-xdpi="96"
       inkscape:export-ydpi="96" />
    <path
       sodipodi:nodetypes="cc"
       style="fill:none;stroke:#000000;stroke-width:0.26458332px;stroke-linecap:butt;stroke-linejoin:miter;stroke-opacity:1"
       d="m -877.13418,-99.229712 -0.25989,0.909507"
       id="path4699"
       inkscape:connector-curvature="0"
       inkscape:export-filename="/home/josip/nikicaMimi.png"
       inkscape:export-xdpi="96"
       inkscape:export-ydpi="96" />
    <path
       style="fill:none;stroke:#000000;stroke-width:0.26458332px;stroke-linecap:butt;stroke-linejoin:miter;stroke-opacity:1"
       d="m -877.21347,-110.57768 c -4.6826,2.53357 -3.71152,1.78832 -5.57923,1.63702"
       id="path4618-7"
       inkscape:connector-curvature="0"
       sodipodi:nodetypes="cc"
       inkscape:export-filename="/home/josip/nikicaMimi.png"
       inkscape:export-xdpi="96"
       inkscape:export-ydpi="96" />
    <path
       style="fill:none;stroke:#000000;stroke-width:0.26458332px;stroke-linecap:butt;stroke-linejoin:miter;stroke-opacity:1"
       d="m -878.81708,-110.67791 c -2.73767,1.7034 -4.17652,0.76019 -4.20948,0.70158"
       id="path4620-5"
       inkscape:connector-curvature="0"
       sodipodi:nodetypes="cc"
       inkscape:export-filename="/home/josip/nikicaMimi.png"
       inkscape:export-xdpi="96"
       inkscape:export-ydpi="96" />
    <path
       style="fill:none;stroke:#000000;stroke-width:0.26458332px;stroke-linecap:butt;stroke-linejoin:miter;stroke-opacity:1"
       d="m -884.35117,-112.17067 c 0,0.0945 -0.83879,1.01579 -0.59057,1.48828 0.2292,0.43629 1.44102,0.33073 1.44102,0.33073"
       id="path4719"
       inkscape:connector-curvature="0"
       sodipodi:nodetypes="cac"
       inkscape:export-filename="/home/josip/nikicaMimi.png"
       inkscape:export-xdpi="96"
       inkscape:export-ydpi="96" />
    <path
       style="fill:#ffffff;fill-opacity:1;stroke:none;stroke-width:0.26458332px;stroke-linecap:butt;stroke-linejoin:miter;stroke-opacity:0.99553576"
       d="m -880.34697,-112.49549 c 0.031,0.0207 0.25757,-0.10814 0.40974,-0.0469 0.19581,0.0787 0.32258,0.34813 0.32258,0.34813 0,0 0.0988,-0.19554 0.0473,-0.27166 -0.13874,-0.20496 -0.50678,-0.26757 -0.72645,-0.15356 -0.0399,0.0207 -0.0532,0.12403 -0.0532,0.12403 z"
       id="path4801"
       inkscape:connector-curvature="0"
       sodipodi:nodetypes="cscaac"
       inkscape:export-filename="/home/josip/nikicaMimi.png"
       inkscape:export-xdpi="96"
       inkscape:export-ydpi="96" />
    <path
       style="fill:#ffffff;fill-opacity:1;stroke:none;stroke-width:0.26458332px;stroke-linecap:butt;stroke-linejoin:miter;stroke-opacity:0.99553576"
       d="m -869.51124,-112.7744 c 0.031,0.0207 0.25757,-0.10813 0.40974,-0.0469 0.19581,0.0787 0.32258,0.34814 0.32258,0.34814 0,0 0.0988,-0.19555 0.0473,-0.27167 -0.13874,-0.20496 -0.50678,-0.26757 -0.72645,-0.15355 -0.0399,0.0207 -0.0532,0.12403 -0.0532,0.12403 z"
       id="path4801-3"
       inkscape:connector-curvature="0"
       sodipodi:nodetypes="cscaac"
       inkscape:export-filename="/home/josip/nikicaMimi.png"
       inkscape:export-xdpi="96"
       inkscape:export-ydpi="96" />
    <g
       id="g4829"
       transform="translate(-55.685617,-64.999726)"
       inkscape:export-filename="/home/josip/nikicaMimi.png"
       inkscape:export-xdpi="96"
       inkscape:export-ydpi="96">
      <g
         transform="translate(-0.16704345,-0.7015825)"
         id="g4761">
        <g
           id="g4752"
           style="stroke:#000000;stroke-opacity:1"
           transform="translate(22.021699,-4.7106254)">
          <path
             id="path4647"
             transform="scale(0.26458333)"
             d="m -3170.8926,-164.08789 -5.5351,0.34766 v 37.99609 c 3.1774,-0.3364 6.3798,-2.61662 9.373,-2.9082 4.2149,-0.41059 8.1545,-10.18989 -0.2012,-12.86719 -3.8555,-7.52243 -4.8296,-15.04594 -3.6367,-22.56836 z"
             style="fill:none;stroke:#000000;stroke-width:0.99999994px;stroke-linecap:butt;stroke-linejoin:miter;stroke-opacity:1"
             inkscape:connector-curvature="0" />
          <path
             id="path4647-3"
             d="m -842.07452,-43.410635 1.46449,0.09199 v 10.053133 c -0.84068,-0.08901 -1.68798,-0.692314 -2.47994,-0.769462 -1.11519,-0.108635 -2.15754,-2.696075 0.0532,-3.404444 1.0201,-1.990309 1.27783,-3.980905 0.96221,-5.971212 z"
             style="fill:none;stroke:#000000;stroke-width:0.26458332px;stroke-linecap:butt;stroke-linejoin:miter;stroke-opacity:1"
             inkscape:connector-curvature="0" />
        </g>
        <path
           style="opacity:1;fill:#ffffff;fill-opacity:1;stroke:none;stroke-width:0.26458332;stroke-opacity:1"
           d="m -819.30935,-47.877915 h 1.50339 v 9.220799 c -0.18012,0.186572 -0.27144,0.424965 -0.43213,0.518414 -0.0736,0.04278 -0.48294,0.04168 -0.52224,0.01526 -0.25972,-0.174543 -0.29365,-0.377154 -0.54902,-0.533679 z"
           id="rect4754"
           inkscape:connector-curvature="0"
           sodipodi:nodetypes="cccsscc" />
      </g>
      <rect
         y="-49.130745"
         x="-820.75134"
         height="0.81851304"
         width="3.9088173"
         id="rect4821"
         style="opacity:1;fill:#ffffff;fill-opacity:1;stroke:none;stroke-width:0.14688371;stroke-opacity:1" />
    </g>
    <path
       style="fill:none;stroke:#000000;stroke-width:0.26458332px;stroke-linecap:butt;stroke-linejoin:miter;stroke-opacity:1"
       d="m -870.12756,-107.14566 c 4.74695,3.58861 4.31832,5.65115 3.82227,6.42089"
       id="path4651-6-5"
       inkscape:connector-curvature="0"
       sodipodi:nodetypes="cc"
       inkscape:export-filename="/home/josip/nikicaMimi.png"
       inkscape:export-xdpi="96"
       inkscape:export-ydpi="96" />
    <text
       xml:space="preserve"
       style="font-style:normal;font-variant:normal;font-weight:normal;font-stretch:normal;font-size:10.58333302px;line-height:1.25;font-family:'Ubuntu Mono';-inkscape-font-specification:'Ubuntu Mono';letter-spacing:0px;word-spacing:0px;fill:#000000;fill-opacity:1;stroke:none;stroke-width:0.26458332"
       x="-912.99268"
       y="-104.56709"
       id="text4902"
       inkscape:export-filename="/home/josip/nikicaMimi.png"
       inkscape:export-xdpi="96"
       inkscape:export-ydpi="96"><tspan
         sodipodi:role="line"
         id="tspan4900"
         x="-912.99268"
         y="-104.56709"
         style="font-style:normal;font-variant:normal;font-weight:normal;font-stretch:normal;font-family:'Ubuntu Mono';-inkscape-font-specification:'Ubuntu Mono';stroke-width:0.26458332">14</tspan><tspan
         id="tspan5381"
         sodipodi:role="line"
         x="-912.99268"
         y="-91.337929"
         style="font-style:normal;font-variant:normal;font-weight:normal;font-stretch:normal;font-family:'Ubuntu Mono';-inkscape-font-specification:'Ubuntu Mono';stroke-width:0.26458332" /></text>
    <text
       xml:space="preserve"
       style="font-style:normal;font-weight:normal;font-size:10.58333302px;line-height:1.25;font-family:sans-serif;letter-spacing:0px;word-spacing:0px;fill:#000000;fill-opacity:1;stroke:none;stroke-width:0.26458332"
       x="-848.84692"
       y="-104.56709"
       id="text4906"
       inkscape:export-filename="/home/josip/nikicaMimi.png"
       inkscape:export-xdpi="96"
       inkscape:export-ydpi="96"><tspan
         sodipodi:role="line"
         id="tspan4904"
         x="-848.84692"
         y="-104.56709"
         style="font-style:normal;font-variant:normal;font-weight:normal;font-stretch:normal;font-family:'Ubuntu Mono';-inkscape-font-specification:'Ubuntu Mono';stroke-width:0.26458332">19</tspan><tspan
         id="tspan5680"
         sodipodi:role="line"
         x="-848.84692"
         y="-91.337929"
         style="stroke-width:0.26458332" /></text>
    <path
       style="fill:none;stroke:#000000;stroke-width:0.26458332px;stroke-linecap:butt;stroke-linejoin:miter;stroke-opacity:1"
       d="m -871.67238,-99.053163 -0.0236,0.531529"
       id="path4916"
       inkscape:connector-curvature="0"
       inkscape:export-filename="/home/josip/nikicaMimi.png"
       inkscape:export-xdpi="96"
       inkscape:export-ydpi="96" />
    <path
       style="fill:none;stroke:#000000;stroke-width:0.26458332px;stroke-linecap:butt;stroke-linejoin:miter;stroke-opacity:1"
       d="m -871.19992,-99.10041 0.0945,-0.614211"
       id="path4918"
       inkscape:connector-curvature="0"
       inkscape:export-filename="/home/josip/nikicaMimi.png"
       inkscape:export-xdpi="96"
       inkscape:export-ydpi="96" />
    <path
       style="fill:none;stroke:#000000;stroke-width:0.26458332px;stroke-linecap:butt;stroke-linejoin:miter;stroke-opacity:1"
       d="m -878.06255,-99.24215 -0.16536,0.602398"
       id="path4920"
       inkscape:connector-curvature="0"
       inkscape:export-filename="/home/josip/nikicaMimi.png"
       inkscape:export-xdpi="96"
       inkscape:export-ydpi="96" />
    <path
       style="fill:none;stroke:#000000;stroke-width:0.26458332px;stroke-linecap:butt;stroke-linejoin:miter;stroke-opacity:1"
       d="m -877.68456,-99.218528 0.0354,-0.555151"
       id="path4922"
       inkscape:connector-curvature="0"
       inkscape:export-filename="/home/josip/nikicaMimi.png"
       inkscape:export-xdpi="96"
       inkscape:export-ydpi="96" />
  </g>
</svg>
